# xmcd
#
# Track frame offsets: 
#        150
#        16546
#        30051
#        59766
#        69930
#        81700
#        102818
#        117084
#        131248
#        143684
#        160476
#        174177
#        191666
#        203177
#        218746
#        228486
#        240018
#        247130
#        262910
#        275842
#        291520
#
# Disc length: 4171 seconds
#
# Revision: 1
# Processed by: cddbd v1.5.1PL0 Copyright (c) Steve Scherf et al.
# Submitted via: ExactAudioCopy v0.95b3
#
DISCID=2d104915
DTITLE=Tony Rice - 58957: The Bluegrass Guitar Collection
DYEAR=2003
DGENRE=Bluegrass
TTITLE0=Tipper
TTITLE1=Monroe's Hornpipe
TTITLE2=Jerusalem Ridge
TTITLE3=New Chance Blues
TTITLE4=Blackberry Blossom
TTITLE5=Medley: Fiddler's Dram/Whiskey Before Breakfast
TTITLE6=Whitewater
TTITLE7=Lost Indian
TTITLE8=Stoney Point
TTITLE9=Misty Morning
TTITLE10=Gold Rush
TTITLE11=Foggy Mountain Rock
TTITLE12=Stoney Creek
TTITLE13=Home Sweet Home
TTITLE14=Bill Cheatham
TTITLE15=Stoney Lonesome
TTITLE16=Soldier's Joy
TTITLE17=Cheyenne
TTITLE18=Big Mon
TTITLE19=Birdland Breakdown
TTITLE20=Port Tobacco
EXTD=
EXTT0=
EXTT1=
EXTT2=
EXTT3=
EXTT4=
EXTT5=
EXTT6=
EXTT7=
EXTT8=
EXTT9=
EXTT10=
EXTT11=
EXTT12=
EXTT13=
EXTT14=
EXTT15=
EXTT16=
EXTT17=
EXTT18=
EXTT19=
EXTT20=
PLAYORDER=
